# Exported using wow.export v0.1.42
o Shadowmoon_OverhangRock_Large_01
mtllib shadowmoon_overhangrock_large_01.mtl
v 32.266510009765625 -7.56642484664917 0.34666481614112854
v 34.67454528808594 -5.423658847808838 0.34666481614112854
v 31.952966690063477 -6.671036720275879 8.633149147033691
v 31.952966690063477 -6.671037197113037 -7.9398193359375
v 34.09573745727539 -0.964645504951477 0.34666481614112854
v 28.095802307128906 -5.4586076736450195 14.37586498260498
v 22.084144592285156 -10.385693550109863 11.220643043518066
v 20.668468475341797 -26.529041290283203 6.4001569747924805
v 23.420705795288086 -10.17847728729248 7.368913650512695
v 29.808401107788086 -10.192288398742676 0.34666481614112854
v 24.001291275024414 -17.229883193969727 0.34666481614112854
v 21.05561637878418 -27.840618133544922 0.34666481614112854
v 23.42070960998535 -10.17847728729248 -6.675583839416504
v 20.668468475341797 -26.5290470123291 -5.706827640533447
v 17.300914764404297 -31.414682388305664 0.34666481614112854
v 17.002887725830078 -29.041786193847656 11.573262214660645
v 10.005485534667969 -9.730325698852539 22.86029624938965
v 13.586881637573242 -12.121438026428223 18.160144805908203
v 22.160478591918945 -0.8683356642723083 20.778024673461914
v -3.4822795391082764 -25.289276123046875 21.271211624145508
v 21.535301208496094 -11.143804550170898 13.155985832214355
v 1.6495022773742676 -42.835479736328125 16.10064125061035
v -5.029533386230469 -45.67317581176758 17.650272369384766
v -11.905204772949219 -32.458160400390625 21.415409088134766
v -1.9345972537994385 -6.624209403991699 27.07469367980957
v -17.72764015197754 -2.710618734359741 24.463041305541992
v -18.07878875732422 -4.783524036407471 24.42098045349121
v -8.919885635375977 -12.668475151062012 25.02859878540039
v -5.174318313598633 -18.14436149597168 26.27396583557129
v -17.145862579345703 -12.864544868469238 22.033464431762695
v -16.963315963745117 -23.67588996887207 24.72669792175293
v -25.666492462158203 -25.326908111572266 0.34666481614112854
v -17.401775360107422 -32.15852737426758 13.476568222045898
v -18.354341506958008 -33.929927825927734 0.34666481614112854
v -8.175819396972656 -43.60816955566406 10.732817649841309
v -13.203709602355957 -47.7262077331543 0.34666481614112854
v -17.401775360107422 -32.158531188964844 -12.783238410949707
v -8.175819396972656 -43.60817337036133 -10.039488792419434
v -16.963315963745117 -23.675891876220703 -24.033367156982422
v -17.145862579345703 -12.864548683166504 -21.340133666992188
v -5.174320220947266 -17.7021427154541 -25.580636978149414
v -8.919885635375977 -12.668476104736328 -24.335269927978516
v -1.9345972537994385 -6.624209403991699 -26.381362915039062
v -18.07878875732422 -4.783524990081787 -23.727649688720703
v -17.72764015197754 -2.7106189727783203 -23.769712448120117
v -24.965517044067383 -3.588491201400757 -14.393855094909668
v -4.084306240081787 -25.11954689025879 -20.577882766723633
v 1.6495022773742676 -42.835479736328125 -15.407309532165527
v -5.029533386230469 -45.67318344116211 -16.95694351196289
v -11.905204772949219 -32.458160400390625 -20.72208023071289
v -5.040808200836182 -46.52983093261719 -8.976122856140137
v 5.8628411293029785 -48.6053352355957 -9.765436172485352
v 2.2159759998321533 -63.29529571533203 -5.428436279296875
v 6.387452602386475 -50.91069793701172 -6.15777587890625
v -4.127686977386475 -61.87218475341797 0.34666481614112854
v -5.418923377990723 -52.706260681152344 -6.640504360198975
v -5.418923377990723 -52.70625686645508 7.333834171295166
v -5.040808200836182 -46.529823303222656 9.669453620910645
v 2.2159759998321533 -63.29528045654297 6.121765613555908
v 1.3974958658218384 -63.93621826171875 0.34666481614112854
v 7.480055809020996 -50.85319137573242 0.34666481614112854
v 12.398492813110352 -46.43180465698242 0.34666481614112854
v 9.14050579071045 -40.035804748535156 -9.53260612487793
v 5.8628411293029785 -48.60532760620117 10.458765983581543
v 6.387452602386475 -50.91069412231445 6.851105690002441
v 9.140503883361816 -40.035804748535156 10.225934982299805
v 29.104949951171875 -0.8683345913887024 14.413957595825195
v 25.284494400024414 0.6609863042831421 14.083341598510742
v 30.193580627441406 1.0297596454620361 0.34666481614112854
v 19.093223571777344 2.414722204208374 19.707481384277344
v 6.110569000244141 3.339825391769409 11.354207038879395
v 13.753754615783691 2.4167134761810303 21.94821548461914
v 14.148655891418457 -0.8683369755744934 24.74859046936035
v -0.28997454047203064 0.6633867621421814 26.068897247314453
v -13.887303352355957 0.6505654454231262 11.001516342163086
v -11.706563949584961 0.6647652387619019 25.020700454711914
v 0.3456994891166687 -0.8683388829231262 28.26634407043457
v -13.187562942504883 -0.8683410882949829 27.0238094329834
v -23.480024337768555 0.6658779382705688 15.320059776306152
v -29.661529541015625 0.666459321975708 10.793278694152832
v -26.444080352783203 -0.8683429956436157 19.799951553344727
v 0.3988279104232788 2.3721649646759033 0.34666481614112854
v -32.7454719543457 0.56474769115448 0.34666481614112854
v -33.39811706542969 -0.8683441281318665 10.954730033874512
v -24.965517044067383 -3.588491201400757 15.087185859680176
v -23.37094497680664 -7.069992542266846 11.891219139099121
v -26.812725067138672 -16.78910255432129 0.34666481614112854
v -30.347299575805664 -7.621018409729004 0.34666481614112854
v -36.51210403442383 -0.9612047672271729 0.34666481614112854
v -33.39811706542969 -0.8683441281318665 -10.261399269104004
v -23.37094497680664 -7.069993495941162 -11.19788932800293
v -26.444080352783203 -0.8683429956436157 -19.10662269592285
v -29.661529541015625 0.666459321975708 -10.099949836730957
v -13.887303352355957 0.6505654454231262 -10.308186531066895
v 6.110569000244141 3.3398263454437256 -10.660877227783203
v 25.284494400024414 0.6609863042831421 -13.39001178741455
v 0.3456994891166687 -0.8683388829231262 -27.573013305664062
v -13.187562942504883 -0.8683410882949829 -26.330480575561523
v -23.480024337768555 0.6658779382705688 -14.626729011535645
v -11.706563949584961 0.6647652387619019 -24.32737159729004
v -0.28997454047203064 0.6633867621421814 -25.375564575195312
v 14.148656845092773 -0.8683369755744934 -24.055261611938477
v 11.4479341506958 -8.975480079650879 -22.16696548461914
v 19.093223571777344 2.414722442626953 -19.01415252685547
v 29.104949951171875 -0.8683347105979919 -13.720626831054688
v 13.753755569458008 2.4167137145996094 -21.254884719848633
v 22.160480499267578 -0.8683356642723083 -20.084699630737305
v 15.55115795135498 -12.41174030303955 -17.466812133789062
v 21.535301208496094 -11.143805503845215 -12.462656021118164
v 28.095802307128906 -5.458608150482178 -13.682536125183105
v 22.084144592285156 -10.385693550109863 -10.527315139770508
v 17.00288963317871 -29.04178810119629 -10.87993335723877
vn 0.8107433319091797 -0.5854017734527588 3.256441871712923e-8
vn 0.97324138879776 -0.2297850102186203 2.304387081153436e-8
vn 0.8993731141090393 -0.3210519552230835 0.29673826694488525
vn 0.8993731737136841 -0.3210519254207611 -0.29673823714256287
vn 0.8948612809181213 0.44634440541267395 1.7822099351860743e-8
vn 0.7534685134887695 -0.45999228954315186 0.46977904438972473
vn 0.8751044869422913 -0.4269907772541046 0.22775213420391083
vn 0.9281589388847351 -0.3298662006855011 0.17236392199993134
vn 0.8029147982597351 -0.5573663115501404 0.21135415136814117
vn 0.7709850072860718 -0.6368532776832581 3.609688192796057e-8
vn 0.9688917994499207 -0.24748460948467255 4.025622857284361e-8
vn 0.90934818983078 -0.416035920381546 1.0822402174426315e-7
vn 0.8029147982597351 -0.5573663115501404 -0.21135415136814117
vn 0.9281588792800903 -0.32986631989479065 -0.17236381769180298
vn 0.8878950476646423 -0.46004611253738403 8.470468060295389e-8
vn 0.8378274440765381 -0.3341216444969177 0.4317498505115509
vn 0.5954554080963135 -0.4207059442996979 0.6844263076782227
vn 0.6950385570526123 -0.4125925600528717 0.5888028740882874
vn 0.757748544216156 0.08824261277914047 0.6465526819229126
vn 0.4464913010597229 -0.35100996494293213 0.8230659365653992
vn 0.9152715802192688 -0.2572779059410095 0.3099775016307831
vn 0.5035114288330078 -0.5560542345046997 0.6612714529037476
vn -0.0749003142118454 -0.8995025157928467 0.43044760823249817
vn -0.409313827753067 -0.4696217179298401 0.7822516560554504
vn 0.042840078473091125 -0.20027799904346466 0.9788020253181458
vn -0.6584675312042236 -0.12514786422252655 0.7421310544013977
vn -0.7373786568641663 -0.10442955791950226 0.6673583388328552
vn -0.45902708172798157 -0.08665391057729721 0.8841862082481384
vn 0.1420372724533081 -0.28321897983551025 0.9484789967536926
vn -0.8443437814712524 -0.08803704380989075 0.5285197496414185
vn -0.6618868708610535 -0.21763421595096588 0.7173151969909668
vn -0.9674571752548218 -0.2530347406864166 4.041027235057726e-10
vn -0.8821191191673279 -0.42811349034309387 0.19642996788024902
vn -0.8908399343490601 -0.4543173015117645 5.023129290293582e-8
vn -0.7318691611289978 -0.6292794346809387 0.2614860236644745
vn -0.9410935044288635 -0.33814647793769836 1.6472792907507028e-8
vn -0.8821191191673279 -0.4281134605407715 -0.19642996788024902
vn -0.7318691611289978 -0.6292794346809387 -0.2614859938621521
vn -0.656519889831543 -0.22139707207679749 -0.7210859656333923
vn -0.8449580073356628 -0.08693403005599976 -0.5277199745178223
vn 0.1301366537809372 -0.28313684463500977 -0.9502094388008118
vn -0.45964962244033813 -0.08728305995464325 -0.8838008046150208
vn 0.03553412854671478 -0.19562776386737823 -0.9800342321395874
vn -0.7373786568641663 -0.10442954301834106 -0.6673583388328552
vn -0.6584675312042236 -0.12514784932136536 -0.7421310544013977
vn -0.6742506623268127 -0.6682776808738708 -0.31431034207344055
vn 0.4255242645740509 -0.355291485786438 -0.8322842717170715
vn 0.49926841259002686 -0.5567855834960938 -0.6638680696487427
vn -0.07308413088321686 -0.8984051942825317 -0.4330436885356903
vn -0.4009486138820648 -0.46779105067253113 -0.7876622080802917
vn -0.5625124573707581 -0.5514848828315735 -0.6159903407096863
vn 0.6549962162971497 -0.44358858466148376 -0.6117263436317444
vn 0.2923232913017273 -0.8129900693893433 -0.5035814642906189
vn 0.9383313655853271 -0.28942909836769104 -0.18911655247211456
vn -0.7879109978675842 -0.6157891750335693 1.734350121296302e-7
vn -0.7433032989501953 -0.34626418352127075 -0.5723646879196167
vn -0.7433032989501953 -0.34626418352127075 0.5723646879196167
vn -0.5625123977661133 -0.551485002040863 0.6159903407096863
vn 0.29232341051101685 -0.8129897713661194 0.5035818815231323
vn 0.3769282400608063 -0.926242470741272 3.668766339615104e-7
vn 0.8928610682487488 -0.45033225417137146 1.6440490924196638e-7
vn 0.9309865832328796 -0.36505335569381714 7.277209590483835e-8
vn 0.8749436140060425 -0.34466683864593506 -0.3401153087615967
vn 0.6549962759017944 -0.44358858466148376 0.6117262840270996
vn 0.9383313059806824 -0.28942909836769104 0.1891167163848877
vn 0.8749436140060425 -0.34466683864593506 0.3401153087615967
vn 0.8788935542106628 0.3654853105545044 0.30653971433639526
vn 0.37089982628822327 0.9272842407226562 0.050767190754413605
vn 0.4106745719909668 0.9117819666862488 5.588270290957098e-9
vn 0.3952060043811798 0.868672251701355 0.29869839549064636
vn -0.02030426822602749 0.9997768402099609 0.005830629728734493
vn 0.19058150053024292 0.9004344940185547 0.39101970195770264
vn 0.5155488848686218 0.19403621554374695 0.8346012830734253
vn 0.012265926226973534 0.9348570704460144 0.354812353849411
vn -0.08746091276407242 0.9959574341773987 0.020478585734963417
vn -0.20209532976150513 0.9377539157867432 0.2824447453022003
vn 0.12172640860080719 0.35986268520355225 0.9250305891036987
vn -0.39371076226234436 0.11570308357477188 0.9119235873222351
vn -0.1133648231625557 0.9888485670089722 0.0965760201215744
vn -0.27638372778892517 0.9564064145088196 0.0943334549665451
vn -0.8298578858375549 0.14691351354122162 0.5382864475250244
vn -0.06532499194145203 0.9978640675544739 8.444517973771326e-9
vn -0.3108365535736084 0.9504633545875549 4.3168857377651193e-10
vn -0.9419785737991333 0.1183723732829094 0.3141087293624878
vn -0.674250602722168 -0.6682777404785156 0.31431031227111816
vn -0.8619316816329956 -0.40635132789611816 0.30323654413223267
vn -0.9876343607902527 -0.15677505731582642 -5.292271065826526e-9
vn -0.8814515471458435 -0.472274512052536 1.0597651645127826e-8
vn -0.9849843382835388 0.17264363169670105 5.4849396136091855e-9
vn -0.9419785737991333 0.1183723732829094 -0.3141087591648102
vn -0.8619316816329956 -0.40635132789611816 -0.30323654413223267
vn -0.8298578858375549 0.14691349864006042 -0.5382864475250244
vn -0.27638372778892517 0.9564064145088196 -0.0943334624171257
vn -0.08746091276407242 0.9959574341773987 -0.02047858200967312
vn -0.020304277539253235 0.9997768402099609 -0.005830621812492609
vn 0.37089988589286804 0.9272841811180115 -0.05076717585325241
vn 0.12172636389732361 0.35986265540122986 -0.9250305891036987
vn -0.3937107026576996 0.11570307612419128 -0.9119235873222351
vn -0.1133648231625557 0.9888485670089722 -0.0965760201215744
vn -0.20209529995918274 0.9377539157867432 -0.2824447751045227
vn 0.012265922501683235 0.9348570108413696 -0.3548124432563782
vn 0.5089283585548401 0.2078019380569458 -0.8353503942489624
vn 0.5642414689064026 -0.3969537317752838 -0.7239194512367249
vn 0.3952060043811798 0.868672251701355 -0.298698365688324
vn 0.8788935542106628 0.365485280752182 -0.30653971433639526
vn 0.19058148562908173 0.9004344940185547 -0.39101967215538025
vn 0.7617374658584595 0.10692618787288666 -0.6390014290809631
vn 0.720245897769928 -0.3957444429397583 -0.569765031337738
vn 0.9309641122817993 -0.24716287851333618 -0.26873093843460083
vn 0.7534685134887695 -0.4599922299385071 -0.46977901458740234
vn 0.8751044869422913 -0.4269907474517822 -0.22775214910507202
vn 0.8378274440765381 -0.33412158489227295 -0.4317498505115509
vt 0.033132974058389664 0.7855108976364136
vt 0.06351028382778168 0.8219473361968994
vt 0.12610411643981934 0.7158544063568115
vt 0.12610411643981934 0.7158544063568115
vt 0.09919693320989609 0.8518019318580627
vt 0.2032206654548645 0.6997982263565063
vt 0.19095315039157867 0.6176687479019165
vt 0.13906614482402802 0.44067513942718506
vt 0.13189610838890076 0.6222711801528931
vt 0.03289749100804329 0.7225930690765381
vt 0.039668574929237366 0.556290328502655
vt 0.07446110248565674 0.40190553665161133
vt 0.13189610838890076 0.6222711801528931
vt 0.13906614482402802 0.44067513942718506
vt 0.12610551714897156 0.32564258575439453
vt 0.23123346269130707 0.4092559814453125
vt 0.39156946539878845 0.6560431122779846
vt 0.3362390100955963 0.6281712651252747
vt 0.29871344566345215 0.7206096649169922
vt 0.5461905598640442 0.503959596157074
vt 0.23193766176700592 0.6066704988479614
vt 0.4576948285102844 0.29688000679016113
vt 0.5361452698707581 0.2922969460487366
vt 0.6283044815063477 0.4244210124015808
vt 0.531400203704834 0.6773613691329956
vt 0.6634072661399841 0.6897884011268616
vt 0.676663339138031 0.6799477934837341
vt 0.6088804602622986 0.6328755021095276
vt 0.5703152418136597 0.586035966873169
vt 0.6955296993255615 0.6222562789916992
vt 0.6432416439056396 0.5190240740776062
vt 0.9239710569381714 0.43369948863983154
vt 0.7195209264755249 0.37619805335998535
vt 0.839611828327179 0.2841895818710327
vt 0.6094163656234741 0.26072317361831665
vt 0.6990841031074524 0.1465064287185669
vt 0.7195209264755249 0.37619805335998535
vt 0.6094163656234741 0.26072317361831665
vt 0.6432416439056396 0.5190240740776062
vt 0.6955296993255615 0.6222562789916992
vt 0.5703152418136597 0.586035966873169
vt 0.6088804602622986 0.6328755021095276
vt 0.531400203704834 0.6773613691329956
vt 0.676663339138031 0.6799477934837341
vt 0.6634072661399841 0.6897884011268616
vt 0.7869229912757874 0.7236881256103516
vt 0.5461905598640442 0.503959596157074
vt 0.4576948285102844 0.29688000679016113
vt 0.5361452698707581 0.2922969460487366
vt 0.6283044815063477 0.4244210124015808
vt 0.5541346073150635 0.22156310081481934
vt 0.4178532063961029 0.2102624773979187
vt 0.46541059017181396 0.05793339014053345
vt 0.3681018650531769 0.1570180058479309
vt 0.5475614666938782 0.012849152088165283
vt 0.5689862966537476 0.1406846046447754
vt 0.5689862966537476 0.1406846046447754
vt 0.5541346073150635 0.22156310081481934
vt 0.46541059017181396 0.05793339014053345
vt 0.4687642753124237 0.010324060916900635
vt 0.31178900599479675 0.09430450201034546
vt 0.24210774898529053 0.15345174074172974
vt 0.3208426535129547 0.277593731880188
vt 0.4178532063961029 0.2102624773979187
vt 0.3681018650531769 0.1570180058479309
vt 0.3208426535129547 0.277593731880188
vt 0.22710582613945007 0.7473006844520569
vt 0.26820775866508484 0.7754391431808472
vt 0.17824530601501465 0.9087464809417725
vt 0.33245086669921875 0.7555361390113831
vt 0.4426281750202179 0.8583824634552002
vt 0.3802223205566406 0.7437407374382019
vt 0.3785720467567444 0.6968306303024292
vt 0.508305013179779 0.740781307220459
vt 0.6318830251693726 0.8599585294723511
vt 0.6050012707710266 0.7291059494018555
vt 0.5131368637084961 0.7073299288749695
vt 0.6209502220153809 0.7008359432220459
vt 0.7178103923797607 0.8032990097999573
vt 0.7769386172294617 0.8122760653495789
vt 0.7420125603675842 0.7613883018493652
vt 0.4939555525779724 0.9928040504455566
vt 0.8341216444969177 0.9129619002342224
vt 0.8159794807434082 0.7895258069038391
vt 0.7869229912757874 0.7236881256103516
vt 0.8272681832313538 0.6886143088340759
vt 0.9726150631904602 0.5836097598075867
vt 0.9662531018257141 0.7406042218208313
vt 0.9090037941932678 0.8634071946144104
vt 0.8159794807434082 0.7895258069038391
vt 0.8272681832313538 0.6886143088340759
vt 0.7420125603675842 0.7613883018493652
vt 0.7769386172294617 0.8122760653495789
vt 0.6318830251693726 0.8599585294723511
vt 0.4426281750202179 0.8583824634552002
vt 0.26820775866508484 0.7754391431808472
vt 0.5131368637084961 0.7073299288749695
vt 0.6209502220153809 0.7008359432220459
vt 0.7178103923797607 0.8032990097999573
vt 0.6050012707710266 0.7291059494018555
vt 0.508305013179779 0.740781307220459
vt 0.3785720467567444 0.6968306303024292
vt 0.39156946539878845 0.6560431122779846
vt 0.33245086669921875 0.7555361390113831
vt 0.22710582613945007 0.7473006844520569
vt 0.3802223205566406 0.7437407374382019
vt 0.29871344566345215 0.7206096649169922
vt 0.3362390100955963 0.6281712651252747
vt 0.23193766176700592 0.6066704988479614
vt 0.2032206654548645 0.6997982263565063
vt 0.19095315039157867 0.6176687479019165
vt 0.23123346269130707 0.4092559814453125
g Geoset0
s 1
usemtl mat_shadowmoon_floatingrock_01
f 1/1/1 2/2/2 3/3/3
f 4/4/4 2/2/2 1/1/1
f 5/5/5 2/2/2 4/4/4
f 5/5/5 3/3/3 2/2/2
f 5/5/5 6/6/6 3/3/3
f 3/3/3 6/6/6 7/7/7
f 8/8/8 9/9/9 7/7/7
f 7/7/7 9/9/9 3/3/3
f 9/9/9 10/10/10 3/3/3
f 9/9/9 11/11/11 10/10/10
f 11/11/11 9/9/9 8/8/8
f 8/8/8 12/12/12 11/11/11
f 11/11/11 13/13/13 10/10/10
f 11/11/11 14/14/14 13/13/13
f 14/14/14 11/11/11 12/12/12
f 14/14/14 12/12/12 15/15/15
f 15/15/15 12/12/12 8/8/8
f 8/8/8 16/16/16 15/15/15
f 7/7/7 16/16/16 8/8/8
f 17/17/17 18/18/18 19/19/19
f 17/17/17 20/20/20 18/18/18
f 19/19/19 18/18/18 21/21/21
f 18/18/18 22/22/22 21/21/21
f 18/18/18 20/20/20 22/22/22
f 20/20/20 23/23/23 22/22/22
f 20/20/20 24/24/24 23/23/23
f 25/25/25 26/26/26 27/27/27
f 27/27/27 28/28/28 25/25/25
f 25/25/25 28/28/28 29/29/29
f 28/28/28 30/30/30 29/29/29
f 29/29/29 30/30/30 31/31/31
f 30/30/30 32/32/32 31/31/31
f 31/31/31 32/32/32 33/33/33
f 34/34/34 33/33/33 32/32/32
f 34/34/34 35/35/35 33/33/33
f 36/36/36 35/35/35 34/34/34
f 34/34/34 37/37/37 38/38/38
f 34/34/34 32/32/32 37/37/37
f 37/37/37 32/32/32 39/39/39
f 40/40/40 39/39/39 32/32/32
f 41/41/41 39/39/39 40/40/40
f 42/42/42 41/41/41 40/40/40
f 43/43/43 41/41/41 42/42/42
f 43/43/43 42/42/42 44/44/44
f 44/44/44 45/45/45 43/43/43
f 46/46/46 45/45/45 44/44/44
f 47/47/47 48/48/48 49/49/49
f 47/47/47 49/49/49 50/50/50
f 39/39/39 41/41/41 47/47/47
f 47/47/47 50/50/50 39/39/39
f 39/39/39 50/50/50 37/37/37
f 37/37/37 50/50/50 49/49/49
f 38/38/38 37/37/37 49/49/49
f 49/49/49 48/48/48 38/38/38
f 48/48/48 51/51/51 38/38/38
f 51/51/51 48/48/48 52/52/52
f 52/52/52 53/53/53 51/51/51
f 52/52/52 54/54/54 53/53/53
f 55/55/55 56/56/56 53/53/53
f 51/51/51 53/53/53 56/56/56
f 51/51/51 56/56/56 36/36/36
f 36/36/36 38/38/38 51/51/51
f 36/36/36 34/34/34 38/38/38
f 55/55/55 36/36/36 56/56/56
f 55/55/55 57/57/57 36/36/36
f 36/36/36 58/58/58 35/35/35
f 58/58/58 36/36/36 57/57/57
f 58/58/58 57/57/57 59/59/59
f 59/59/59 57/57/57 55/55/55
f 55/55/55 60/60/60 59/59/59
f 53/53/53 60/60/60 55/55/55
f 61/61/61 60/60/60 53/53/53
f 53/53/53 54/54/54 61/61/61
f 62/62/62 61/61/61 54/54/54
f 54/54/54 63/63/63 62/62/62
f 59/59/59 60/60/60 61/61/61
f 33/33/33 24/24/24 31/31/31
f 33/33/33 23/23/23 24/24/24
f 35/35/35 23/23/23 33/33/33
f 23/23/23 35/35/35 22/22/22
f 22/22/22 35/35/35 58/58/58
f 64/64/64 22/22/22 58/58/58
f 58/58/58 59/59/59 64/64/64
f 64/64/64 59/59/59 65/65/65
f 61/61/61 65/65/65 59/59/59
f 65/65/65 61/61/61 62/62/62
f 66/66/66 15/15/15 16/16/16
f 66/66/66 62/62/62 15/15/15
f 62/62/62 66/66/66 65/65/65
f 66/66/66 64/64/64 65/65/65
f 22/22/22 64/64/64 66/66/66
f 22/22/22 66/66/66 16/16/16
f 16/16/16 21/21/21 22/22/22
f 16/16/16 7/7/7 21/21/21
f 19/19/19 21/21/21 7/7/7
f 7/7/7 6/6/6 19/19/19
f 6/6/6 67/67/67 19/19/19
f 5/5/5 67/67/67 6/6/6
f 68/68/68 67/67/67 5/5/5
f 5/5/5 69/69/69 68/68/68
f 70/70/70 19/19/19 67/67/67
f 67/67/67 68/68/68 70/70/70
f 70/70/70 68/68/68 71/71/71
f 71/71/71 72/72/72 70/70/70
f 19/19/19 70/70/70 72/72/72
f 72/72/72 73/73/73 19/19/19
f 19/19/19 73/73/73 17/17/17
f 72/72/72 71/71/71 74/74/74
f 73/73/73 72/72/72 74/74/74
f 71/71/71 75/75/75 76/76/76
f 76/76/76 74/74/74 71/71/71
f 77/77/77 74/74/74 76/76/76
f 74/74/74 77/77/77 73/73/73
f 73/73/73 77/77/77 25/25/25
f 25/25/25 17/17/17 73/73/73
f 25/25/25 29/29/29 17/17/17
f 17/17/17 29/29/29 20/20/20
f 20/20/20 29/29/29 31/31/31
f 31/31/31 24/24/24 20/20/20
f 26/26/26 25/25/25 77/77/77
f 77/77/77 78/78/78 26/26/26
f 76/76/76 78/78/78 77/77/77
f 78/78/78 76/76/76 79/79/79
f 79/79/79 76/76/76 75/75/75
f 75/75/75 80/80/80 79/79/79
f 81/81/81 79/79/79 80/80/80
f 79/79/79 81/81/81 78/78/78
f 26/26/26 78/78/78 81/81/81
f 69/69/69 71/71/71 68/68/68
f 71/71/71 69/69/69 82/82/82
f 75/75/75 71/71/71 82/82/82
f 82/82/82 83/83/83 75/75/75
f 80/80/80 75/75/75 83/83/83
f 84/84/84 80/80/80 83/83/83
f 80/80/80 84/84/84 81/81/81
f 85/85/85 81/81/81 84/84/84
f 81/81/81 85/85/85 26/26/26
f 85/85/85 27/27/27 26/26/26
f 27/27/27 30/30/30 28/28/28
f 30/30/30 27/27/27 86/86/86
f 85/85/85 86/86/86 27/27/27
f 84/84/84 86/86/86 85/85/85
f 32/32/32 30/30/30 87/87/87
f 86/86/86 87/87/87 30/30/30
f 87/87/87 86/86/86 88/88/88
f 88/88/88 86/86/86 84/84/84
f 84/84/84 89/89/89 88/88/88
f 83/83/83 89/89/89 84/84/84
f 90/90/90 89/89/89 83/83/83
f 88/88/88 89/89/89 90/90/90
f 90/90/90 91/91/91 88/88/88
f 87/87/87 88/88/88 91/91/91
f 40/40/40 87/87/87 91/91/91
f 32/32/32 87/87/87 40/40/40
f 44/44/44 42/42/42 40/40/40
f 91/91/91 44/44/44 40/40/40
f 46/46/46 44/44/44 91/91/91
f 46/46/46 91/91/91 90/90/90
f 45/45/45 46/46/46 92/92/92
f 90/90/90 92/92/92 46/46/46
f 92/92/92 90/90/90 93/93/93
f 83/83/83 93/93/93 90/90/90
f 93/93/93 83/83/83 94/94/94
f 94/94/94 83/83/83 82/82/82
f 82/82/82 95/95/95 94/94/94
f 95/95/95 82/82/82 69/69/69
f 69/69/69 96/96/96 95/95/95
f 96/96/96 69/69/69 5/5/5
f 97/97/97 43/43/43 45/45/45
f 45/45/45 98/98/98 97/97/97
f 92/92/92 98/98/98 45/45/45
f 98/98/98 92/92/92 99/99/99
f 93/93/93 99/99/99 92/92/92
f 99/99/99 93/93/93 94/94/94
f 94/94/94 100/100/100 99/99/99
f 99/99/99 100/100/100 98/98/98
f 97/97/97 98/98/98 100/100/100
f 100/100/100 94/94/94 95/95/95
f 95/95/95 101/101/101 100/100/100
f 100/100/100 101/101/101 97/97/97
f 102/102/102 97/97/97 101/101/101
f 43/43/43 97/97/97 102/102/102
f 102/102/102 103/103/103 43/43/43
f 43/43/43 103/103/103 41/41/41
f 103/103/103 47/47/47 41/41/41
f 104/104/104 96/96/96 105/105/105
f 95/95/95 96/96/96 104/104/104
f 106/106/106 101/101/101 95/95/95
f 104/104/104 106/106/106 95/95/95
f 106/106/106 104/104/104 107/107/107
f 105/105/105 107/107/107 104/104/104
f 101/101/101 106/106/106 102/102/102
f 107/107/107 102/102/102 106/106/106
f 108/108/108 48/48/48 47/47/47
f 103/103/103 108/108/108 47/47/47
f 108/108/108 109/109/109 48/48/48
f 107/107/107 109/109/109 108/108/108
f 107/107/107 108/108/108 103/103/103
f 103/103/103 102/102/102 107/107/107
f 5/5/5 105/105/105 96/96/96
f 5/5/5 110/110/110 105/105/105
f 110/110/110 107/107/107 105/105/105
f 107/107/107 110/110/110 111/111/111
f 111/111/111 109/109/109 107/107/107
f 112/112/112 109/109/109 111/111/111
f 48/48/48 109/109/109 112/112/112
f 112/112/112 63/63/63 48/48/48
f 48/48/48 63/63/63 52/52/52
f 63/63/63 54/54/54 52/52/52
f 5/5/5 4/4/4 110/110/110
f 111/111/111 110/110/110 4/4/4
f 63/63/63 15/15/15 62/62/62
f 63/63/63 112/112/112 15/15/15
f 15/15/15 112/112/112 14/14/14
f 14/14/14 112/112/112 111/111/111
f 111/111/111 13/13/13 14/14/14
f 4/4/4 13/13/13 111/111/111
f 13/13/13 4/4/4 10/10/10
f 1/1/1 10/10/10 4/4/4
f 3/3/3 10/10/10 1/1/1